<svg xmlns="http://www.w3.org/2000/svg" viewBox="0 0 240 300" role="img" aria-labelledby="botanical-dunhuang-title botanical-dunhuang-desc">
  <title id="botanical-dunhuang-title">植物标本柜 · 敦煌橙青</title>
  <desc id="botanical-dunhuang-desc">花叶、抽屉标签和玻璃柜构成植物档案，使用敦煌橙青深色暖纸配色。</desc>

  <defs>
    <linearGradient id="botanical-dunhuang-bg" x1="0" y1="0" x2="1" y2="1"><stop stop-color="#432714"/><stop offset=".58" stop-color="#A14924"/><stop offset="1" stop-color="#BF5825"/></linearGradient>
    <linearGradient id="botanical-dunhuang-gold" x1="0" y1="0" x2="1" y2="1"><stop stop-color="#DD9650"/><stop offset=".42" stop-color="#E0B26F"/><stop offset=".72" stop-color="#6BB0A0"/><stop offset="1" stop-color="#E0B26F"/></linearGradient>
    <linearGradient id="botanical-dunhuang-paper" x1="0" y1="0" x2="0" y2="1"><stop stop-color="#DD9650"/><stop offset="1" stop-color="#E0B26F"/></linearGradient>
    <radialGradient id="botanical-dunhuang-glow"><stop stop-color="#DD9650" stop-opacity=".5"/><stop offset=".32" stop-color="#E0B26F" stop-opacity=".22"/><stop offset="1" stop-color="#E0B26F" stop-opacity="0"/></radialGradient>
    <pattern id="botanical-dunhuang-grain" width="17" height="15" patternUnits="userSpaceOnUse"><path d="M0 3h17M5 0v15M0 13 17 2" fill="none" stroke="#DD9650" stroke-opacity=".032" stroke-width=".7"/></pattern>
    <filter id="botanical-dunhuang-shadow" x="-30%" y="-30%" width="170%" height="175%"><feDropShadow dx="0" dy="4" stdDeviation="3" flood-color="#160C07" flood-opacity=".72"/></filter>
  </defs>
  <rect width="240" height="300" rx="8" fill="url(#botanical-dunhuang-bg)"/>
  <rect x="7" y="7" width="226" height="286" rx="5" fill="url(#botanical-dunhuang-grain)" stroke="#E0B26F" stroke-width="2"/>
  <rect x="12" y="12" width="216" height="276" rx="3" fill="none" stroke="#DD9650" stroke-opacity=".22"/>
  <g fill="none" stroke="#E0B26F" stroke-width="1.5" stroke-linecap="round">
    <path d="M20 49c22-5 39-18 47-37M220 49c-22-5-39-18-47-37M20 251c22 5 39 18 47 37M220 251c-22 5-39 18-47 37"/>
    <path d="M20 79V22h57M220 79V22h-57M20 221v57h57M220 221v57h-57" stroke-opacity=".38"/>
  </g>
  <g fill="#E0B26F"><path d="m20 19 8 6-8 6-8-6Zm200 0 8 6-8 6-8-6Zm-200 250 8 6-8 6-8-6Zm200 0 8 6-8 6-8-6Z"/></g>

  <g filter="url(#botanical-dunhuang-shadow)"><path d="M57 31h126l9 15-9 15 9 15-9 15 9 15-9 15 9 15-9 15 9 15-9 15 9 15-9 15 9 15-9 15H57l-9-15 9-15-9-15 9-15-9-15 9-15-9-15 9-15-9-15 9-15-9-15 9-15-9-15 9-15Z" fill="#BF5825" stroke="url(#botanical-dunhuang-gold)" stroke-width="4"/><rect x="66" y="42" width="108" height="216" rx="49" fill="#A14924" stroke="#DD9650" stroke-opacity=".55" stroke-width="2"/></g>
  <ellipse cx="120" cy="150" rx="68" ry="108" fill="none" stroke="#E0B26F" stroke-opacity=".45"/>
  
    <rect x="78" y="66" width="84" height="152" rx="38" fill="#432714" stroke="#DD9650" stroke-width="3"/><path d="M120 202V88" stroke="#E0B26F" stroke-width="4"/>
    <g fill="#6BB0A0" stroke="#DD9650" stroke-width="2"><path d="M119 120c-25-2-40-14-44-35 23 2 38 14 44 35Z"/><path d="M121 144c26-3 42-16 47-38-24 2-40 15-47 38Z"/><path d="M119 169c-23-2-37-13-41-32 21 1 35 12 41 32Z"/></g>
    <g fill="#DD9650" stroke="#E0B26F" stroke-width="1.5"><circle cx="120" cy="79" r="10"/><circle cx="90" cy="186" r="8"/><circle cx="151" cy="176" r="9"/></g>
    <path d="M73 224h94v24H73Z" fill="#BF5825" stroke="#E0B26F" stroke-width="2"/><path d="M91 232h58" stroke="#DD9650" stroke-width="3"/><circle cx="120" cy="219" r="4" fill="#E0B26F"/>
</svg>
