<svg xmlns="http://www.w3.org/2000/svg" viewBox="0 0 240 300" role="img" aria-labelledby="botanical-spring-violet-title botanical-spring-violet-desc">
  <title id="botanical-spring-violet-title">植物标本柜 · 春日藤紫</title>
  <desc id="botanical-spring-violet-desc">花叶、抽屉标签和玻璃柜构成植物档案，使用春日藤紫深色暖纸配色。</desc>

  <defs>
    <linearGradient id="botanical-spring-violet-bg" x1="0" y1="0" x2="1" y2="1"><stop stop-color="#4E456C"/><stop offset=".58" stop-color="#8B79B4"/><stop offset="1" stop-color="#B5A5D9"/></linearGradient>
    <linearGradient id="botanical-spring-violet-gold" x1="0" y1="0" x2="1" y2="1"><stop stop-color="#F6E8CF"/><stop offset=".42" stop-color="#F0D8BD"/><stop offset=".72" stop-color="#C3CFB1"/><stop offset="1" stop-color="#F0D8BD"/></linearGradient>
    <linearGradient id="botanical-spring-violet-paper" x1="0" y1="0" x2="0" y2="1"><stop stop-color="#F6E8CF"/><stop offset="1" stop-color="#F0D8BD"/></linearGradient>
    <radialGradient id="botanical-spring-violet-glow"><stop stop-color="#F6E8CF" stop-opacity=".5"/><stop offset=".32" stop-color="#F0D8BD" stop-opacity=".22"/><stop offset="1" stop-color="#F0D8BD" stop-opacity="0"/></radialGradient>
    <pattern id="botanical-spring-violet-grain" width="17" height="15" patternUnits="userSpaceOnUse"><path d="M0 3h17M5 0v15M0 13 17 2" fill="none" stroke="#F6E8CF" stroke-opacity=".032" stroke-width=".7"/></pattern>
    <filter id="botanical-spring-violet-shadow" x="-30%" y="-30%" width="170%" height="175%"><feDropShadow dx="0" dy="4" stdDeviation="3" flood-color="#1A1724" flood-opacity=".72"/></filter>
  </defs>
  <rect width="240" height="300" rx="8" fill="url(#botanical-spring-violet-bg)"/>
  <rect x="7" y="7" width="226" height="286" rx="5" fill="url(#botanical-spring-violet-grain)" stroke="#F0D8BD" stroke-width="2"/>
  <rect x="12" y="12" width="216" height="276" rx="3" fill="none" stroke="#F6E8CF" stroke-opacity=".22"/>
  <g fill="none" stroke="#F0D8BD" stroke-width="1.5" stroke-linecap="round">
    <path d="M20 49c22-5 39-18 47-37M220 49c-22-5-39-18-47-37M20 251c22 5 39 18 47 37M220 251c-22 5-39 18-47 37"/>
    <path d="M20 79V22h57M220 79V22h-57M20 221v57h57M220 221v57h-57" stroke-opacity=".38"/>
  </g>
  <g fill="#F0D8BD"><path d="m20 19 8 6-8 6-8-6Zm200 0 8 6-8 6-8-6Zm-200 250 8 6-8 6-8-6Zm200 0 8 6-8 6-8-6Z"/></g>

  <g filter="url(#botanical-spring-violet-shadow)"><path d="M57 31h126l9 15-9 15 9 15-9 15 9 15-9 15 9 15-9 15 9 15-9 15 9 15-9 15 9 15-9 15H57l-9-15 9-15-9-15 9-15-9-15 9-15-9-15 9-15-9-15 9-15-9-15 9-15-9-15 9-15Z" fill="#B5A5D9" stroke="url(#botanical-spring-violet-gold)" stroke-width="4"/><rect x="66" y="42" width="108" height="216" rx="49" fill="#8B79B4" stroke="#F6E8CF" stroke-opacity=".55" stroke-width="2"/></g>
  <ellipse cx="120" cy="150" rx="68" ry="108" fill="none" stroke="#F0D8BD" stroke-opacity=".45"/>
  
    <rect x="78" y="66" width="84" height="152" rx="38" fill="#4E456C" stroke="#F6E8CF" stroke-width="3"/><path d="M120 202V88" stroke="#F0D8BD" stroke-width="4"/>
    <g fill="#C3CFB1" stroke="#F6E8CF" stroke-width="2"><path d="M119 120c-25-2-40-14-44-35 23 2 38 14 44 35Z"/><path d="M121 144c26-3 42-16 47-38-24 2-40 15-47 38Z"/><path d="M119 169c-23-2-37-13-41-32 21 1 35 12 41 32Z"/></g>
    <g fill="#F6E8CF" stroke="#F0D8BD" stroke-width="1.5"><circle cx="120" cy="79" r="10"/><circle cx="90" cy="186" r="8"/><circle cx="151" cy="176" r="9"/></g>
    <path d="M73 224h94v24H73Z" fill="#B5A5D9" stroke="#F0D8BD" stroke-width="2"/><path d="M91 232h58" stroke="#F6E8CF" stroke-width="3"/><circle cx="120" cy="219" r="4" fill="#F0D8BD"/>
</svg>
