<svg xmlns="http://www.w3.org/2000/svg" viewBox="0 0 240 300" role="img" aria-labelledby="compass-peach-night-title compass-peach-night-desc">
  <title id="compass-peach-night-title">古地图罗盘 · 夜蓝蜜桃</title>
  <desc id="compass-peach-night-desc">罗盘、经纬线和折叠地图组成远行徽记，使用夜蓝蜜桃深色暖纸配色。</desc>

  <defs>
    <linearGradient id="compass-peach-night-bg" x1="0" y1="0" x2="1" y2="1"><stop stop-color="#050B10"/><stop offset=".58" stop-color="#173B5A"/><stop offset="1" stop-color="#6098C4"/></linearGradient>
    <linearGradient id="compass-peach-night-gold" x1="0" y1="0" x2="1" y2="1"><stop stop-color="#F4A08F"/><stop offset=".42" stop-color="#FF914D"/><stop offset=".72" stop-color="#A8A5CD"/><stop offset="1" stop-color="#FF914D"/></linearGradient>
    <linearGradient id="compass-peach-night-paper" x1="0" y1="0" x2="0" y2="1"><stop stop-color="#F4A08F"/><stop offset="1" stop-color="#FF914D"/></linearGradient>
    <radialGradient id="compass-peach-night-glow"><stop stop-color="#F4A08F" stop-opacity=".5"/><stop offset=".32" stop-color="#FF914D" stop-opacity=".22"/><stop offset="1" stop-color="#FF914D" stop-opacity="0"/></radialGradient>
    <pattern id="compass-peach-night-grain" width="17" height="15" patternUnits="userSpaceOnUse"><path d="M0 3h17M5 0v15M0 13 17 2" fill="none" stroke="#F4A08F" stroke-opacity=".032" stroke-width=".7"/></pattern>
    <filter id="compass-peach-night-shadow" x="-30%" y="-30%" width="170%" height="175%"><feDropShadow dx="0" dy="4" stdDeviation="3" flood-color="#020507" flood-opacity=".72"/></filter>
  </defs>
  <rect width="240" height="300" rx="8" fill="url(#compass-peach-night-bg)"/>
  <rect x="7" y="7" width="226" height="286" rx="5" fill="url(#compass-peach-night-grain)" stroke="#FF914D" stroke-width="2"/>
  <rect x="12" y="12" width="216" height="276" rx="3" fill="none" stroke="#F4A08F" stroke-opacity=".22"/>
  <g fill="none" stroke="#FF914D" stroke-width="1.5" stroke-linecap="round">
    <path d="M20 49c22-5 39-18 47-37M220 49c-22-5-39-18-47-37M20 251c22 5 39 18 47 37M220 251c-22 5-39 18-47 37"/>
    <path d="M20 79V22h57M220 79V22h-57M20 221v57h57M220 221v57h-57" stroke-opacity=".38"/>
  </g>
  <g fill="#FF914D"><path d="m20 19 8 6-8 6-8-6Zm200 0 8 6-8 6-8-6Zm-200 250 8 6-8 6-8-6Zm200 0 8 6-8 6-8-6Z"/></g>

  <g filter="url(#compass-peach-night-shadow)"><path d="M57 31h126l9 15-9 15 9 15-9 15 9 15-9 15 9 15-9 15 9 15-9 15 9 15-9 15 9 15-9 15H57l-9-15 9-15-9-15 9-15-9-15 9-15-9-15 9-15-9-15 9-15-9-15 9-15-9-15 9-15Z" fill="#6098C4" stroke="url(#compass-peach-night-gold)" stroke-width="4"/><rect x="66" y="42" width="108" height="216" rx="49" fill="#173B5A" stroke="#F4A08F" stroke-opacity=".55" stroke-width="2"/></g>
  <ellipse cx="120" cy="150" rx="68" ry="108" fill="none" stroke="#FF914D" stroke-opacity=".45"/>
  
    <circle cx="120" cy="146" r="62" fill="#050B10" stroke="url(#compass-peach-night-gold)" stroke-width="5"/><circle cx="120" cy="146" r="49" fill="#173B5A" stroke="#F4A08F" stroke-opacity=".52" stroke-width="2"/>
    <g fill="none" stroke="#FF914D" stroke-width="2" stroke-opacity=".65"><ellipse cx="120" cy="146" rx="82" ry="30"/><ellipse cx="120" cy="146" rx="30" ry="82"/><path d="M74 100l92 92M166 100l-92 92"/></g>
    <path d="m120 86 13 47 42 13-42 13-13 47-13-47-42-13 42-13Z" fill="#A8A5CD" stroke="#F4A08F" stroke-width="2"/><path d="m120 104 7 31 27 11-27 11-7 31-7-31-27-11 27-11Z" fill="#F4A08F"/><circle cx="120" cy="146" r="8" fill="#6098C4" stroke="#FF914D" stroke-width="2"/>
    <path d="M75 217c25-16 47-15 66 3 14-12 29-14 44-5" fill="none" stroke="#F4A08F" stroke-width="3" stroke-dasharray="3 5"/>
</svg>
