<svg xmlns="http://www.w3.org/2000/svg" viewBox="0 0 240 300" role="img" aria-labelledby="gramophone-retro-olive-title gramophone-retro-olive-desc">
  <title id="gramophone-retro-olive-title">留声机 · 复古蓝橄榄</title>
  <desc id="gramophone-retro-olive-desc">黄铜唱筒、唱片和流动音轨组成怀旧舞台，使用复古蓝橄榄深色暖纸配色。</desc>

  <defs>
    <linearGradient id="gramophone-retro-olive-bg" x1="0" y1="0" x2="1" y2="1"><stop stop-color="#24323B"/><stop offset=".58" stop-color="#355D7A"/><stop offset="1" stop-color="#7E8C73"/></linearGradient>
    <linearGradient id="gramophone-retro-olive-gold" x1="0" y1="0" x2="1" y2="1"><stop stop-color="#E5D7C2"/><stop offset=".42" stop-color="#C7BDA6"/><stop offset=".72" stop-color="#9C4B1B"/><stop offset="1" stop-color="#C7BDA6"/></linearGradient>
    <linearGradient id="gramophone-retro-olive-paper" x1="0" y1="0" x2="0" y2="1"><stop stop-color="#E5D7C2"/><stop offset="1" stop-color="#C7BDA6"/></linearGradient>
    <radialGradient id="gramophone-retro-olive-glow"><stop stop-color="#E5D7C2" stop-opacity=".5"/><stop offset=".32" stop-color="#C7BDA6" stop-opacity=".22"/><stop offset="1" stop-color="#C7BDA6" stop-opacity="0"/></radialGradient>
    <pattern id="gramophone-retro-olive-grain" width="17" height="15" patternUnits="userSpaceOnUse"><path d="M0 3h17M5 0v15M0 13 17 2" fill="none" stroke="#E5D7C2" stroke-opacity=".032" stroke-width=".7"/></pattern>
    <filter id="gramophone-retro-olive-shadow" x="-30%" y="-30%" width="170%" height="175%"><feDropShadow dx="0" dy="4" stdDeviation="3" flood-color="#0E1418" flood-opacity=".72"/></filter>
  </defs>
  <rect width="240" height="300" rx="8" fill="url(#gramophone-retro-olive-bg)"/>
  <rect x="7" y="7" width="226" height="286" rx="5" fill="url(#gramophone-retro-olive-grain)" stroke="#C7BDA6" stroke-width="2"/>
  <rect x="12" y="12" width="216" height="276" rx="3" fill="none" stroke="#E5D7C2" stroke-opacity=".22"/>
  <g fill="none" stroke="#C7BDA6" stroke-width="1.5" stroke-linecap="round">
    <path d="M20 49c22-5 39-18 47-37M220 49c-22-5-39-18-47-37M20 251c22 5 39 18 47 37M220 251c-22 5-39 18-47 37"/>
    <path d="M20 79V22h57M220 79V22h-57M20 221v57h57M220 221v57h-57" stroke-opacity=".38"/>
  </g>
  <g fill="#C7BDA6"><path d="m20 19 8 6-8 6-8-6Zm200 0 8 6-8 6-8-6Zm-200 250 8 6-8 6-8-6Zm200 0 8 6-8 6-8-6Z"/></g>

  <g filter="url(#gramophone-retro-olive-shadow)"><rect x="28" y="34" width="184" height="205" rx="77" fill="#0E1418" stroke="url(#gramophone-retro-olive-gold)" stroke-width="6"/><rect x="36" y="42" width="168" height="189" rx="68" fill="#355D7A" stroke="#9C4B1B" stroke-width="2"/></g>
  
    <path d="M37 43h166v188H37Z" fill="url(#gramophone-retro-olive-bg)"/><path d="M73 196h99l-8 32H81Z" fill="#7E8C73" stroke="#C7BDA6" stroke-width="3"/><circle cx="122" cy="185" r="28" fill="#24323B" stroke="#E5D7C2" stroke-width="3"/><circle cx="122" cy="185" r="7" fill="#9C4B1B"/>
    <path d="M131 171c28-34 44-59 42-84-17 5-35 16-52 31 20 13 27 31 10 53Z" fill="url(#gramophone-retro-olive-paper)" stroke="#C7BDA6" stroke-width="3"/><path d="M121 119c-14-12-24-17-30-14M162 105c13-9 23-12 30-8" fill="none" stroke="#E5D7C2" stroke-width="2"/>
    <g fill="none" stroke="#C7BDA6" stroke-width="2" stroke-linecap="round"><path d="M64 91c21 7 28 23 21 47"/><path d="M55 78c34 10 46 36 34 72"/><path d="M177 137c14 8 20 19 18 34"/></g>
  <path d="M22 246h196v38H22Z" fill="#355D7A" stroke="#C7BDA6" stroke-width="2"/><path d="M31 256h178M31 274h178" stroke="#C7BDA6" stroke-opacity=".5"/>
  <circle cx="120" cy="265" r="9" fill="#7E8C73" stroke="#C7BDA6" stroke-width="2"/><path d="m120 258 2.5 5 5.5 2-5.5 2-2.5 5-2.5-5-5.5-2 5.5-2Z" fill="#E5D7C2"/>
</svg>
