<svg xmlns="http://www.w3.org/2000/svg" viewBox="0 0 240 300" role="img" aria-labelledby="staircase-orange-blue-title staircase-orange-blue-desc">
  <title id="staircase-orange-blue-title">螺旋楼梯 · 橙蓝撞色</title>
  <desc id="staircase-orange-blue-desc">螺旋阶梯通向发光小门，形成纵深场景，使用橙蓝撞色深色暖纸配色。</desc>

  <defs>
    <linearGradient id="staircase-orange-blue-bg" x1="0" y1="0" x2="1" y2="1"><stop stop-color="#262034"/><stop offset=".58" stop-color="#603C43"/><stop offset="1" stop-color="#D9572B"/></linearGradient>
    <linearGradient id="staircase-orange-blue-gold" x1="0" y1="0" x2="1" y2="1"><stop stop-color="#F4D0A1"/><stop offset=".42" stop-color="#F07B2A"/><stop offset=".72" stop-color="#607B7A"/><stop offset="1" stop-color="#F07B2A"/></linearGradient>
    <linearGradient id="staircase-orange-blue-paper" x1="0" y1="0" x2="0" y2="1"><stop stop-color="#F4D0A1"/><stop offset="1" stop-color="#F07B2A"/></linearGradient>
    <radialGradient id="staircase-orange-blue-glow"><stop stop-color="#F4D0A1" stop-opacity=".5"/><stop offset=".32" stop-color="#F07B2A" stop-opacity=".22"/><stop offset="1" stop-color="#F07B2A" stop-opacity="0"/></radialGradient>
    <pattern id="staircase-orange-blue-grain" width="17" height="15" patternUnits="userSpaceOnUse"><path d="M0 3h17M5 0v15M0 13 17 2" fill="none" stroke="#F4D0A1" stroke-opacity=".032" stroke-width=".7"/></pattern>
    <filter id="staircase-orange-blue-shadow" x="-30%" y="-30%" width="170%" height="175%"><feDropShadow dx="0" dy="4" stdDeviation="3" flood-color="#0D0A12" flood-opacity=".72"/></filter>
  </defs>
  <rect width="240" height="300" rx="8" fill="url(#staircase-orange-blue-bg)"/>
  <rect x="7" y="7" width="226" height="286" rx="5" fill="url(#staircase-orange-blue-grain)" stroke="#F07B2A" stroke-width="2"/>
  <rect x="12" y="12" width="216" height="276" rx="3" fill="none" stroke="#F4D0A1" stroke-opacity=".22"/>
  <g fill="none" stroke="#F07B2A" stroke-width="1.5" stroke-linecap="round">
    <path d="M20 49c22-5 39-18 47-37M220 49c-22-5-39-18-47-37M20 251c22 5 39 18 47 37M220 251c-22 5-39 18-47 37"/>
    <path d="M20 79V22h57M220 79V22h-57M20 221v57h57M220 221v57h-57" stroke-opacity=".38"/>
  </g>
  <g fill="#F07B2A"><path d="m20 19 8 6-8 6-8-6Zm200 0 8 6-8 6-8-6Zm-200 250 8 6-8 6-8-6Zm200 0 8 6-8 6-8-6Z"/></g>

  <g filter="url(#staircase-orange-blue-shadow)"><rect x="28" y="34" width="184" height="205" rx="77" fill="#0D0A12" stroke="url(#staircase-orange-blue-gold)" stroke-width="6"/><rect x="36" y="42" width="168" height="189" rx="68" fill="#603C43" stroke="#607B7A" stroke-width="2"/></g>
  
    <path d="M37 43h166v188H37Z" fill="url(#staircase-orange-blue-bg)"/><rect x="96" y="55" width="48" height="63" rx="20" fill="url(#staircase-orange-blue-glow)" stroke="#F4D0A1" stroke-width="3"/><path d="M103 113h34v-48h-34Z" fill="#F07B2A" fill-opacity=".35"/>
    <path d="M59 210c16-3 27-10 34-21-19-3-30-11-34-25 17 1 30-5 38-17-17-5-27-14-30-28 25 4 43-1 53-16 10 15 28 20 53 16-3 14-13 23-30 28 8 12 21 18 38 17-4 14-15 22-34 25 7 11 18 18 34 21" fill="none" stroke="#F07B2A" stroke-width="7" stroke-linecap="round"/>
    <path d="M120 104v123" stroke="#F4D0A1" stroke-opacity=".5" stroke-width="2"/><circle cx="120" cy="113" r="5" fill="#F4D0A1"/>
  <path d="M22 246h196v38H22Z" fill="#603C43" stroke="#F07B2A" stroke-width="2"/><path d="M31 256h178M31 274h178" stroke="#F07B2A" stroke-opacity=".5"/>
  <circle cx="120" cy="265" r="9" fill="#D9572B" stroke="#F07B2A" stroke-width="2"/><path d="m120 258 2.5 5 5.5 2-5.5 2-2.5 5-2.5-5-5.5-2 5.5-2Z" fill="#F4D0A1"/>
</svg>
