<svg xmlns="http://www.w3.org/2000/svg" viewBox="0 0 240 300" role="img" aria-labelledby="telescope-charcoal-red-title telescope-charcoal-red-desc">
  <title id="telescope-charcoal-red-title">天文望远镜 · 炭灰暗红</title>
  <desc id="telescope-charcoal-red-desc">望远镜、星轨和星座线构成观测记录，使用炭灰暗红深色暖纸配色。</desc>

  <defs>
    <linearGradient id="telescope-charcoal-red-bg" x1="0" y1="0" x2="1" y2="1"><stop stop-color="#0A0A0A"/><stop offset=".58" stop-color="#33312F"/><stop offset="1" stop-color="#371E1E"/></linearGradient>
    <linearGradient id="telescope-charcoal-red-gold" x1="0" y1="0" x2="1" y2="1"><stop stop-color="#B7B4AE"/><stop offset=".42" stop-color="#9A817C"/><stop offset=".72" stop-color="#726E68"/><stop offset="1" stop-color="#9A817C"/></linearGradient>
    <linearGradient id="telescope-charcoal-red-paper" x1="0" y1="0" x2="0" y2="1"><stop stop-color="#B7B4AE"/><stop offset="1" stop-color="#9A817C"/></linearGradient>
    <radialGradient id="telescope-charcoal-red-glow"><stop stop-color="#B7B4AE" stop-opacity=".5"/><stop offset=".32" stop-color="#9A817C" stop-opacity=".22"/><stop offset="1" stop-color="#9A817C" stop-opacity="0"/></radialGradient>
    <pattern id="telescope-charcoal-red-grain" width="17" height="15" patternUnits="userSpaceOnUse"><path d="M0 3h17M5 0v15M0 13 17 2" fill="none" stroke="#B7B4AE" stroke-opacity=".032" stroke-width=".7"/></pattern>
    <filter id="telescope-charcoal-red-shadow" x="-30%" y="-30%" width="170%" height="175%"><feDropShadow dx="0" dy="4" stdDeviation="3" flood-color="#000000" flood-opacity=".72"/></filter>
  </defs>
  <rect width="240" height="300" rx="8" fill="url(#telescope-charcoal-red-bg)"/>
  <rect x="7" y="7" width="226" height="286" rx="5" fill="url(#telescope-charcoal-red-grain)" stroke="#9A817C" stroke-width="2"/>
  <rect x="12" y="12" width="216" height="276" rx="3" fill="none" stroke="#B7B4AE" stroke-opacity=".22"/>
  <g fill="none" stroke="#9A817C" stroke-width="1.5" stroke-linecap="round">
    <path d="M20 49c22-5 39-18 47-37M220 49c-22-5-39-18-47-37M20 251c22 5 39 18 47 37M220 251c-22 5-39 18-47 37"/>
    <path d="M20 79V22h57M220 79V22h-57M20 221v57h57M220 221v57h-57" stroke-opacity=".38"/>
  </g>
  <g fill="#9A817C"><path d="m20 19 8 6-8 6-8-6Zm200 0 8 6-8 6-8-6Zm-200 250 8 6-8 6-8-6Zm200 0 8 6-8 6-8-6Z"/></g>

  <g filter="url(#telescope-charcoal-red-shadow)"><path d="M43 244V111c0-55 33-88 77-88s77 33 77 88v133Z" fill="#371E1E" stroke="url(#telescope-charcoal-red-gold)" stroke-width="5"/><path d="M51 236V112c0-48 29-79 69-79s69 31 69 79v124Z" fill="#33312F" stroke="#B7B4AE" stroke-opacity=".48" stroke-width="2"/></g>
  
    <circle cx="156" cy="75" r="37" fill="url(#telescope-charcoal-red-glow)"/><g fill="#B7B4AE"><path d="m164 56 3 7 7 3-7 3-3 7-3-7-7-3 7-3Z"/><circle cx="87" cy="70" r="2"/><circle cx="104" cy="51" r="2"/><circle cx="153" cy="105" r="2"/></g>
    <path d="M78 145 149 91l17 23-70 54Z" fill="#726E68" stroke="#B7B4AE" stroke-width="3"/><path d="m149 91 19-8 13 18-15 13Z" fill="#371E1E" stroke="#9A817C" stroke-width="2"/><circle cx="92" cy="161" r="10" fill="#9A817C"/>
    <path d="M92 171 67 225M98 171l16 55M93 171l-2 56" stroke="#9A817C" stroke-width="5"/><path d="M52 228c28-27 55-31 81-12 18-16 36-16 56 0v23H52Z" fill="#371E1E"/>
    <path d="M64 107c16-12 30-12 42 0M135 48c15-11 29-11 42 0" fill="none" stroke="#9A817C" stroke-width="2" stroke-dasharray="2 6"/>
  <path d="M65 246c13 18 31 28 55 32 24-4 42-14 55-32" fill="none" stroke="#9A817C" stroke-width="2"/>
  
</svg>
