<svg xmlns="http://www.w3.org/2000/svg" viewBox="0 0 240 300" role="img" aria-labelledby="umbrella-orange-blue-title umbrella-orange-blue-desc">
  <title id="umbrella-orange-blue-title">雨中伞 · 橙蓝撞色</title>
  <desc id="umbrella-orange-blue-desc">展开雨伞、雨滴和水洼波纹组成雨夜场景，使用橙蓝撞色深色暖纸配色。</desc>

  <defs>
    <linearGradient id="umbrella-orange-blue-bg" x1="0" y1="0" x2="1" y2="1"><stop stop-color="#262034"/><stop offset=".58" stop-color="#603C43"/><stop offset="1" stop-color="#D9572B"/></linearGradient>
    <linearGradient id="umbrella-orange-blue-gold" x1="0" y1="0" x2="1" y2="1"><stop stop-color="#F4D0A1"/><stop offset=".42" stop-color="#F07B2A"/><stop offset=".72" stop-color="#607B7A"/><stop offset="1" stop-color="#F07B2A"/></linearGradient>
    <linearGradient id="umbrella-orange-blue-paper" x1="0" y1="0" x2="0" y2="1"><stop stop-color="#F4D0A1"/><stop offset="1" stop-color="#F07B2A"/></linearGradient>
    <radialGradient id="umbrella-orange-blue-glow"><stop stop-color="#F4D0A1" stop-opacity=".5"/><stop offset=".32" stop-color="#F07B2A" stop-opacity=".22"/><stop offset="1" stop-color="#F07B2A" stop-opacity="0"/></radialGradient>
    <pattern id="umbrella-orange-blue-grain" width="17" height="15" patternUnits="userSpaceOnUse"><path d="M0 3h17M5 0v15M0 13 17 2" fill="none" stroke="#F4D0A1" stroke-opacity=".032" stroke-width=".7"/></pattern>
    <filter id="umbrella-orange-blue-shadow" x="-30%" y="-30%" width="170%" height="175%"><feDropShadow dx="0" dy="4" stdDeviation="3" flood-color="#0D0A12" flood-opacity=".72"/></filter>
  </defs>
  <rect width="240" height="300" rx="8" fill="url(#umbrella-orange-blue-bg)"/>
  <rect x="7" y="7" width="226" height="286" rx="5" fill="url(#umbrella-orange-blue-grain)" stroke="#F07B2A" stroke-width="2"/>
  <rect x="12" y="12" width="216" height="276" rx="3" fill="none" stroke="#F4D0A1" stroke-opacity=".22"/>
  <g fill="none" stroke="#F07B2A" stroke-width="1.5" stroke-linecap="round">
    <path d="M20 49c22-5 39-18 47-37M220 49c-22-5-39-18-47-37M20 251c22 5 39 18 47 37M220 251c-22 5-39 18-47 37"/>
    <path d="M20 79V22h57M220 79V22h-57M20 221v57h57M220 221v57h-57" stroke-opacity=".38"/>
  </g>
  <g fill="#F07B2A"><path d="m20 19 8 6-8 6-8-6Zm200 0 8 6-8 6-8-6Zm-200 250 8 6-8 6-8-6Zm200 0 8 6-8 6-8-6Z"/></g>

  <g filter="url(#umbrella-orange-blue-shadow)"><rect x="28" y="34" width="184" height="205" rx="77" fill="#0D0A12" stroke="url(#umbrella-orange-blue-gold)" stroke-width="6"/><rect x="36" y="42" width="168" height="189" rx="68" fill="#603C43" stroke="#607B7A" stroke-width="2"/></g>
  
    <path d="M37 43h166v188H37Z" fill="url(#umbrella-orange-blue-bg)"/><g stroke="#F4D0A1" stroke-width="2" stroke-linecap="round" opacity=".65"><path d="m56 62-7 16M82 50l-7 16M108 63l-7 16M141 49l-7 16M173 62l-7 16M194 47l-7 16"/></g>
    <path d="M58 142c14-45 40-67 78-67s64 22 78 67c-13-8-26-8-39 0-13-8-26-8-39 0-13-8-26-8-39 0-13-8-26-8-39 0Z" fill="#607B7A" stroke="#F4D0A1" stroke-width="3"/><path d="M136 77v106c0 27-28 31-38 10" fill="none" stroke="#F07B2A" stroke-width="7" stroke-linecap="round"/>
    <ellipse cx="136" cy="218" rx="67" ry="12" fill="none" stroke="#F07B2A" stroke-width="3"/><ellipse cx="136" cy="218" rx="39" ry="7" fill="none" stroke="#F4D0A1" stroke-opacity=".55" stroke-width="2"/>
  <path d="M22 246h196v38H22Z" fill="#603C43" stroke="#F07B2A" stroke-width="2"/><path d="M31 256h178M31 274h178" stroke="#F07B2A" stroke-opacity=".5"/>
  <circle cx="120" cy="265" r="9" fill="#D9572B" stroke="#F07B2A" stroke-width="2"/><path d="m120 258 2.5 5 5.5 2-5.5 2-2.5 5-2.5-5-5.5-2 5.5-2Z" fill="#F4D0A1"/>
</svg>
