<svg xmlns="http://www.w3.org/2000/svg" viewBox="0 0 240 300" role="img" aria-labelledby="forest-midnight-title forest-midnight-desc">
  <title id="forest-midnight-title">纸雕森林 · 午夜蓝</title>
  <desc id="forest-midnight-desc">层叠林木、月光与林间小径构成纸雕远景，使用午夜蓝深色暖纸配色。</desc>

  <defs>
    <linearGradient id="forest-midnight-bg" x1="0" y1="0" x2="1" y2="1"><stop stop-color="#101d26"/><stop offset=".58" stop-color="#142a32"/><stop offset="1" stop-color="#283c4b"/></linearGradient>
    <linearGradient id="forest-midnight-gold" x1="0" y1="0" x2="1" y2="1"><stop stop-color="#dfc891"/><stop offset=".42" stop-color="#c5a25e"/><stop offset=".72" stop-color="#536879"/><stop offset="1" stop-color="#c5a25e"/></linearGradient>
    <linearGradient id="forest-midnight-paper" x1="0" y1="0" x2="0" y2="1"><stop stop-color="#dfc891"/><stop offset="1" stop-color="#c5a25e"/></linearGradient>
    <radialGradient id="forest-midnight-glow"><stop stop-color="#dfc891" stop-opacity=".5"/><stop offset=".32" stop-color="#c5a25e" stop-opacity=".22"/><stop offset="1" stop-color="#c5a25e" stop-opacity="0"/></radialGradient>
    <pattern id="forest-midnight-grain" width="17" height="15" patternUnits="userSpaceOnUse"><path d="M0 3h17M5 0v15M0 13 17 2" fill="none" stroke="#dfc891" stroke-opacity=".032" stroke-width=".7"/></pattern>
    <filter id="forest-midnight-shadow" x="-30%" y="-30%" width="170%" height="175%"><feDropShadow dx="0" dy="4" stdDeviation="3" flood-color="#060a0d" flood-opacity=".72"/></filter>
  </defs>
  <rect width="240" height="300" rx="8" fill="url(#forest-midnight-bg)"/>
  <rect x="7" y="7" width="226" height="286" rx="5" fill="url(#forest-midnight-grain)" stroke="#c5a25e" stroke-width="2"/>
  <rect x="12" y="12" width="216" height="276" rx="3" fill="none" stroke="#dfc891" stroke-opacity=".22"/>
  <g fill="none" stroke="#c5a25e" stroke-width="1.5" stroke-linecap="round">
    <path d="M20 49c22-5 39-18 47-37M220 49c-22-5-39-18-47-37M20 251c22 5 39 18 47 37M220 251c-22 5-39 18-47 37"/>
    <path d="M20 79V22h57M220 79V22h-57M20 221v57h57M220 221v57h-57" stroke-opacity=".38"/>
  </g>
  <g fill="#c5a25e"><path d="m20 19 8 6-8 6-8-6Zm200 0 8 6-8 6-8-6Zm-200 250 8 6-8 6-8-6Zm200 0 8 6-8 6-8-6Z"/></g>

  <g filter="url(#forest-midnight-shadow)"><path d="M43 244V111c0-55 33-88 77-88s77 33 77 88v133Z" fill="#283c4b" stroke="url(#forest-midnight-gold)" stroke-width="5"/><path d="M51 236V112c0-48 29-79 69-79s69 31 69 79v124Z" fill="#142a32" stroke="#dfc891" stroke-opacity=".48" stroke-width="2"/></g>
  
    <circle cx="158" cy="78" r="24" fill="#dfc891"/><circle cx="168" cy="69" r="23" fill="#142a32"/>
    <g fill="#283c4b"><path d="M57 217 83 125l26 92Z"/><path d="M82 226 121 91l39 135Z"/><path d="M139 222 167 126l28 96Z"/></g>
    <g fill="#536879"><path d="M48 237 76 151l28 86Z"/><path d="M104 239 144 119l40 120Z"/></g>
    <g stroke="#c5a25e" stroke-width="4"><path d="M83 208v31M121 190v49M167 207v32"/></g>
    <path d="M55 237c28-15 48-12 65 2 18-16 39-19 65-3" fill="none" stroke="#dfc891" stroke-opacity=".45" stroke-width="2"/><path d="M111 229c3-12 7-19 9-25 3 6 7 13 9 25" fill="none" stroke="#c5a25e" stroke-width="3"/>
  <path d="M65 246c13 18 31 28 55 32 24-4 42-14 55-32" fill="none" stroke="#c5a25e" stroke-width="2"/>
  
</svg>
